<?xml version="1.0" encoding="UTF-8" standalone="no"?>
<!DOCTYPE svg PUBLIC "-//W3C//DTD SVG 1.1//EN" "http://www.w3.org/Graphics/SVG/1.1/DTD/svg11.dtd">
<svg version="1.1" xmlns="http://www.w3.org/2000/svg" xmlns:xlink="http://www.w3.org/1999/xlink" preserveAspectRatio="xMidYMid meet" viewBox="5.5 -1 38 52" width="34" height="48"><defs><path d="M33.9 44.7C33.9 46.52 29.24 48 23.5 48C17.76 48 13.1 46.52 13.1 44.7C13.1 42.88 17.76 41.4 23.5 41.4C29.24 41.4 33.9 42.88 33.9 44.7Z" id="knglmhMqy"></path><path d="M6.5 16.8C6.5 26.1 23.5 44.8 23.5 44.8C23.5 44.8 40.5 26.1 40.5 16.8C40.5 7.5 32.9 0 23.5 0C14.1 0 6.5 7.5 6.5 16.8Z" id="aLLL5Orn1"></path><path d="M23.5 11.3C21.18 11.3 19.3 13.18 19.3 15.5C19.3 17.82 21.18 19.7 23.5 19.7C25.82 19.7 27.7 17.82 27.7 15.5C27.7 13.18 25.82 11.3 23.5 11.3Z" id="c2ap7SGsQd"></path><path d="M27.7 16C27.7 15.8 27.8 15.7 27.8 15.5C27.8 13.2 25.9 11.3 23.6 11.3C21.3 11.3 19.4 13.2 19.4 15.5C19.4 15.7 19.4 15.8 19.5 16C19.6 13.9 21.3 12.2 23.5 12.2C25.7 12.2 27.4 13.8 27.7 16Z" id="aVx4jsjr4"></path></defs><g><g><use xlink:href="#knglmhMqy" opacity="1" fill="#000000" fill-opacity="1"></use><g><use xlink:href="#knglmhMqy" opacity="1" fill-opacity="0" stroke="#000000" stroke-width="1" stroke-opacity="0"></use></g></g><g><use xlink:href="#aLLL5Orn1" opacity="1" fill="#c0b283" fill-opacity="1"></use><g><use xlink:href="#aLLL5Orn1" opacity="1" fill-opacity="0" stroke="#000000" stroke-width="1" stroke-opacity="0"></use></g></g><g><use xlink:href="#c2ap7SGsQd" opacity="1" fill="#343434" fill-opacity="1"></use><g><use xlink:href="#c2ap7SGsQd" opacity="1" fill-opacity="0" stroke="#000000" stroke-width="1" stroke-opacity="0"></use></g></g><g><use xlink:href="#aVx4jsjr4" opacity="1" fill="#913d3d" fill-opacity="1"></use><g><use xlink:href="#aVx4jsjr4" opacity="1" fill-opacity="0" stroke="#000000" stroke-width="1" stroke-opacity="0"></use></g></g></g></svg>